<svg width="13" height="13" viewBox="0 0 13 13" fill="none" xmlns="http://www.w3.org/2000/svg">
<path fill-rule="evenodd" clip-rule="evenodd" d="M6.5 13C10.0899 13 13 10.0899 13 6.5C13 2.91015 10.0899 0 6.5 0C2.91015 0 0 2.91015 0 6.5C0 10.0899 2.91015 13 6.5 13ZM4.05005 4.66003C4.05005 3.32586 5.12577 2.25 6.46002 2.25C7.79427 2.25 8.87 3.32586 8.87 4.66003C8.87 5.71293 8.17777 6.26861 7.72471 6.57822C7.53029 6.71256 7.40497 6.81821 7.32381 6.92708C7.25637 7.01753 7.21002 7.12213 7.21002 7.29004V7.5C7.21002 7.91421 6.87424 8.25 6.46002 8.25C6.04581 8.25 5.71002 7.91421 5.71002 7.5V7.29004C5.71002 6.21317 6.4187 5.65716 6.87391 5.34285L6.87707 5.34066L6.87708 5.34067C7.06225 5.21421 7.1834 5.11098 7.26115 5.00604C7.32625 4.91818 7.37 4.81776 7.37 4.66003C7.37 4.15421 6.96577 3.75 6.46002 3.75C5.95427 3.75 5.55005 4.15421 5.55005 4.66003C5.55005 5.07425 5.21426 5.41003 4.80005 5.41003C4.38584 5.41003 4.05005 5.07425 4.05005 4.66003ZM6.45551 9.14062C6.0413 9.14062 5.70551 9.47641 5.70551 9.89062C5.70551 10.3048 6.0413 10.6406 6.45551 10.6406H6.46451C6.87872 10.6406 7.21451 10.3048 7.21451 9.89062C7.21451 9.47641 6.87872 9.14062 6.46451 9.14062H6.45551Z" fill="#212529"/>
</svg>
