<svg width="36" height="37" viewBox="0 0 36 37" fill="none" xmlns="http://www.w3.org/2000/svg">
<g clip-path="url(#clip0_2311_25336)">
<path d="M17.9971 36.3943C27.9353 36.3943 35.9917 28.3364 35.9917 18.3964C35.9917 8.4564 27.9353 0.398438 17.9971 0.398438C8.05902 0.398438 0.00256348 8.4564 0.00256348 18.3964C0.00256348 28.3364 8.05902 36.3943 17.9971 36.3943Z" fill="#FFC800"/>
<path d="M25.7412 31.8052C19.6301 35.3322 13.0026 35.9643 8.76917 33.8516C14.1892 37.0817 21.1483 37.3611 26.9976 33.9843C32.8468 30.604 36.0856 24.4371 35.9984 18.127C35.7122 22.8517 31.8522 28.2783 25.7412 31.8052Z" fill="black"/>
<path d="M20.2793 1.71869C21.5182 3.8628 18.5238 7.91355 13.5889 10.7595C8.654 13.6055 3.65278 14.1783 2.41382 12.0307C2.36147 11.9294 2.31261 11.8176 2.27771 11.7024C1.95663 10.7037 2.34053 9.41163 3.26539 8.04975C3.41546 7.83675 3.56902 7.62723 3.72607 7.42119C5.12208 5.60183 6.89152 4.02343 8.99952 2.80821C11.1075 1.58949 13.3586 0.849174 15.6306 0.548861C15.8958 0.510448 16.1541 0.482513 16.4054 0.465053C18.0456 0.342832 19.3544 0.657115 20.0594 1.43235C20.1432 1.52663 20.2164 1.62091 20.2793 1.71869Z" fill="black"/>
<path d="M27.9293 4.03969C30.0932 7.78663 25.7271 14.3551 18.1817 18.7132C10.6362 23.0713 2.76274 23.5671 0.602416 19.8202C0.242944 19.1951 0.0509924 18.5002 0.0126022 17.7529C-0.0816284 20.2706 0.351135 22.8303 1.35975 25.2607C1.50982 25.6239 1.67386 25.9836 1.84836 26.3398C1.85534 26.3537 1.86581 26.3712 1.87279 26.3852C2.52542 27.5131 3.48867 28.4001 4.68924 29.0426C8.92264 31.3089 16.0807 30.5302 22.7746 26.6645C29.465 22.7989 33.7193 16.9916 33.8764 12.1936C33.9217 10.8387 33.639 9.56407 32.9934 8.43615C32.7491 8.06951 32.4943 7.70983 32.2256 7.36759C30.6376 5.31427 28.6622 3.68001 26.467 2.51367C27.0778 2.91525 27.5734 3.4216 27.9293 4.03969C27.9293 4.03969 27.9328 4.04318 27.9328 4.04667L27.9293 4.03969Z" fill="black"/>
<path d="M18.0006 36.3943C27.9387 36.3943 35.9952 28.3364 35.9952 18.3964C35.9952 8.4564 27.9387 0.398438 18.0006 0.398438C8.06251 0.398438 0.00604248 8.4564 0.00604248 18.3964C0.00604248 28.3364 8.06251 36.3943 18.0006 36.3943Z" fill="url(#paint0_radial_2311_25336)"/>
</g>
<defs>
<radialGradient id="paint0_radial_2311_25336" cx="0" cy="0" r="1" gradientUnits="userSpaceOnUse" gradientTransform="translate(17.9989 18.3979) scale(17.9942 18.0045)">
<stop offset="0.5" stop-color="white" stop-opacity="0"/>
<stop offset="1" stop-color="white" stop-opacity="0.35"/>
</radialGradient>
<clipPath id="clip0_2311_25336">
<rect width="36" height="36" fill="white" transform="translate(0 0.398438)"/>
</clipPath>
</defs>
</svg>
