<svg width="36" height="41" viewBox="0 0 36 41" fill="none" xmlns="http://www.w3.org/2000/svg">
<g clip-path="url(#clip0_2311_25354)">
<path d="M34.8437 9.35683L19.1477 0.306113C18.7977 0.105531 18.4013 0 17.9979 0C17.5944 0 17.198 0.105531 16.848 0.306113L1.15197 9.35683C0.802226 9.55876 0.511702 9.84907 0.309518 10.1987C0.107334 10.5483 0.000595193 10.9449 0 11.3487V29.4493C0 30.2669 0.441016 31.0285 1.15197 31.4412L16.848 40.4919C17.1984 40.6936 17.5958 40.7991 18 40.7979C18.4049 40.7979 18.8021 40.6905 19.152 40.4919L34.848 31.4412C35.1976 31.2393 35.4881 30.9492 35.6903 30.5997C35.8924 30.2503 35.9993 29.8539 36 29.4502V11.3487C36 10.532 35.559 9.76948 34.848 9.35683H34.8437ZM18.3533 19.2767C18.2452 19.3388 18.1226 19.3715 17.9979 19.3715C17.8731 19.3715 17.7505 19.3388 17.6424 19.2767L2.38304 10.4787L17.6424 1.68418C17.7511 1.62366 17.8734 1.59189 17.9979 1.59189C18.1223 1.59189 18.2446 1.62366 18.3533 1.68418L33.6127 10.4804L18.3533 19.2767ZM16.848 20.6487C16.9592 20.7129 17.0784 20.7674 17.2057 20.8121V38.8568L1.94632 30.0648C1.83817 30.0026 1.74822 29.9131 1.68547 29.8052C1.62272 29.6974 1.58935 29.5749 1.58869 29.4502V11.8525L16.848 20.6487Z" fill="black"/>
</g>
<defs>
<clipPath id="clip0_2311_25354">
<rect width="36" height="40.798" fill="white"/>
</clipPath>
</defs>
</svg>
