<svg width="32" height="21" viewBox="0 0 32 21" fill="none" xmlns="http://www.w3.org/2000/svg">
<g clip-path="url(#clip0_2311_25233)">
<path d="M20.317 2.62109H11.6572V18.1791H20.317V2.62109Z" fill="#FF5A00"/>
<path d="M12.2337 10.3998C12.2337 7.23889 13.7197 4.43345 15.9999 2.6208C14.3218 1.30134 12.2049 0.503906 9.89583 0.503906C4.42586 0.503906 -8.39233e-05 4.92985 -8.39233e-05 10.3998C-8.39233e-05 15.8698 4.42586 20.2957 9.89583 20.2957C12.2049 20.2957 14.3218 19.4983 15.9999 18.1788C13.7165 16.3918 12.2337 13.5608 12.2337 10.3998Z" fill="#EB001B"/>
<path d="M31.9999 10.3998C31.9999 15.8698 27.574 20.2957 22.104 20.2957C19.795 20.2957 17.6781 19.4983 15.9999 18.1788C18.309 16.363 19.7661 13.5608 19.7661 10.3998C19.7661 7.23889 18.2801 4.43345 15.9999 2.6208C17.6749 1.30134 19.7917 0.503906 22.1008 0.503906C27.574 0.503906 31.9999 4.95867 31.9999 10.3998Z" fill="#F79E1B"/>
</g>
<defs>
<clipPath id="clip0_2311_25233">
<rect width="32" height="19.7918" fill="white" transform="translate(0 0.503906)"/>
</clipPath>
</defs>
</svg>
