<svg width="36" height="37" viewBox="0 0 36 37" fill="none" xmlns="http://www.w3.org/2000/svg">
<g clip-path="url(#clip0_2311_25342)">
<path d="M20.2 0.498047V19.0314C20.2 19.898 19.5333 20.498 18.7333 20.498H16.5333C16.4 20.498 16.3333 20.6314 16.3333 20.698V36.2314C16.8666 36.2314 17.4 36.3647 18 36.3647C27.9333 36.3647 36 28.298 36 18.3647C36 9.23138 29.1333 1.56471 20.2 0.498047ZM19.8 28.2314C18.5333 28.2314 17.6 27.1647 17.6 26.0314C17.6 24.7647 18.6666 23.8314 19.8 23.8314C21.0666 23.8314 22 24.898 22 26.0314C22.1333 27.2314 21.0666 28.2314 19.8 28.2314ZM25.0666 28.2314C23.8 28.2314 22.8666 27.1647 22.8666 26.0314C22.8666 24.7647 23.9333 23.8314 25.0666 23.8314C26.3333 23.8314 27.2666 24.898 27.2666 26.0314C27.2666 27.1647 26.4 28.2314 25.0666 28.2314ZM30.4 28.2314C29.1333 28.2314 28.2 27.1647 28.2 26.0314C28.2 24.7647 29.2666 23.8314 30.4 23.8314C31.6666 23.8314 32.6 24.898 32.6 26.0314C32.6 27.1647 31.6666 28.2314 30.4 28.2314Z" fill="#00B956"/>
<path d="M18 0.431641C8.06667 0.431641 0 8.49831 0 18.4316C0 27.165 6.06667 34.2983 14.2 35.965V19.765C14.2 19.0316 14.8667 18.4316 15.5333 18.2983H17.7333C17.8667 18.2983 17.9333 18.165 17.9333 18.0983L18 0.431641ZM14.5333 15.2316C13.2667 15.2316 12.3333 14.165 12.3333 13.0316C12.3333 11.765 13.4 10.8316 14.5333 10.8316C15.8 10.8316 16.7333 11.8983 16.7333 13.0316C16.7333 14.165 15.7333 15.2316 14.5333 15.2316Z" fill="#00B956"/>
</g>
<defs>
<clipPath id="clip0_2311_25342">
<rect width="36" height="35.9333" fill="white" transform="translate(0 0.431641)"/>
</clipPath>
</defs>
</svg>
