<svg width="48" height="14" viewBox="0 0 48 14" fill="none" xmlns="http://www.w3.org/2000/svg">
<g clip-path="url(#clip0_2311_25237)">
<path d="M6.10352e-05 0.849788H4.50321C4.91259 0.849788 6.14072 0.713329 6.68655 2.62376C7.09593 3.85189 7.64177 5.76231 8.46052 8.62795H8.73344C9.55219 5.62585 10.2345 3.57897 10.5074 2.62376C11.0532 0.713329 12.4178 0.849788 12.9637 0.849788H17.1939V13.9499H12.8272V6.17169H12.5543L10.2345 13.9499H6.95947L4.63967 6.17169H4.23029V13.9499H6.10352e-05M18.9679 0.849788H23.3346V8.62795H23.7439L26.6096 2.21438C27.1554 0.986247 28.3835 0.849788 28.3835 0.849788H32.4773V13.9499H28.1106V6.17169H27.8377L24.9721 12.5853C24.4262 13.8134 23.0616 13.9499 23.0616 13.9499H18.9679M38.345 9.99254V13.9499H34.2513V7.1269H47.6243C47.0784 8.76441 45.168 9.99254 42.9846 9.99254" fill="#0F754E"/>
<path d="M47.8972 6.30797C48.443 3.85171 46.8055 0.849609 43.2576 0.849609H33.9784C34.2513 3.71525 36.7075 6.30797 39.3003 6.30797" fill="url(#paint0_linear_2311_25237)"/>
</g>
<defs>
<linearGradient id="paint0_linear_2311_25237" x1="46.2597" y1="-0.924358" x2="35.343" y2="-0.924358" gradientUnits="userSpaceOnUse">
<stop stop-color="#1F5CD7"/>
<stop offset="1" stop-color="#02AEFF"/>
</linearGradient>
<clipPath id="clip0_2311_25237">
<rect width="48" height="13.1022" fill="white" transform="translate(0 0.847656)"/>
</clipPath>
</defs>
</svg>
