<svg width="48" height="9" viewBox="0 0 48 9" fill="none" xmlns="http://www.w3.org/2000/svg">
<g clip-path="url(#clip0_2311_25272)">
<path d="M-9.15527e-05 8.41736V0.378906H2.59844C3.582 0.378906 4.22556 0.415334 4.52913 0.500333C4.99055 0.62176 5.37911 0.888899 5.68268 1.28961C5.99839 1.69032 6.1441 2.21245 6.1441 2.85602C6.1441 3.35386 6.0591 3.76671 5.87696 4.09457C5.69482 4.43456 5.47626 4.68956 5.19697 4.88384C4.91769 5.07812 4.63841 5.19955 4.35913 5.26026C3.97056 5.33312 3.412 5.36955 2.6713 5.36955H1.61488V8.40522L-9.15527e-05 8.41736ZM1.62703 1.73889V4.02171H2.51344C3.157 4.02171 3.582 3.98528 3.80057 3.90028C4.01913 3.81528 4.18913 3.68172 4.31056 3.51172C4.43199 3.32958 4.4927 3.12315 4.4927 2.89244C4.4927 2.60102 4.4077 2.35816 4.2377 2.16388C4.0677 1.9696 3.84914 1.86031 3.582 1.81174C3.38772 1.77532 2.99915 1.75103 2.4163 1.75103C2.40416 1.73889 1.62703 1.73889 1.62703 1.73889Z" fill="black"/>
<path d="M13.9033 8.41736H12.1426L11.4383 6.59596H8.23265L7.56481 8.41736H5.84055L8.97335 0.378906H10.6855L13.9033 8.41736ZM10.9162 5.23598L9.8112 2.26102L8.7305 5.23598H10.9162Z" fill="black"/>
<path d="M15.8461 8.41693V5.04127L12.9076 0.390625H14.814L16.7083 3.57201L18.5661 0.390625H20.4361L17.4854 5.05341V8.41693H15.8461Z" fill="black"/>
<path d="M21.2132 8.41736V0.378906H27.1631V1.73889H22.8281V3.52386H26.8595V4.8717H22.8281V7.05738H27.3209V8.41736H21.2132Z" fill="#64B3DF"/>
<path d="M28.6931 8.41736V0.378906H34.643V1.73889H30.3202V3.52386H34.3515V4.8717H30.3202V7.05738H34.813V8.41736H28.6931Z" fill="#64B3DF"/>
<path d="M36.1851 8.41736V0.378906H39.5972C40.4593 0.378906 41.0786 0.451765 41.4672 0.597477C41.8557 0.743189 42.1714 0.998183 42.4021 1.36246C42.6329 1.72674 42.7543 2.15174 42.7543 2.6253C42.7543 3.23244 42.5721 3.73029 42.22 4.11885C41.8679 4.50742 41.3336 4.76242 40.6293 4.85956C40.9814 5.06598 41.2729 5.28455 41.5036 5.53954C41.7343 5.7824 42.0379 6.21953 42.4264 6.83881L43.41 8.40522H41.4672L40.2893 6.65667C39.8765 6.0374 39.585 5.63668 39.4393 5.47883C39.2815 5.32098 39.1236 5.19955 38.9536 5.13884C38.7836 5.07812 38.5043 5.05384 38.1401 5.05384H37.8122V8.41736H36.1851ZM37.8001 3.77886H39.0022C39.7793 3.77886 40.265 3.74243 40.4593 3.68172C40.6536 3.621 40.7993 3.49958 40.9086 3.34172C41.0179 3.18387 41.0786 2.97744 41.0786 2.73459C41.0786 2.46745 41.0057 2.24888 40.86 2.07888C40.7143 1.90888 40.5079 1.81175 40.2529 1.76317C40.1193 1.73889 39.7308 1.73889 39.075 1.73889H37.8001V3.77886Z" fill="#64B3DF"/>
<path d="M47.9999 6.17175C47.9999 6.79103 47.7814 7.32531 47.3442 7.76244C46.9071 8.19958 46.385 8.41815 45.7657 8.41815C45.1464 8.41815 44.6243 8.19958 44.1871 7.76244C43.75 7.32531 43.5436 6.79103 43.5436 6.17175C43.5436 5.55248 43.7621 5.03034 44.1993 4.5932C44.6364 4.15607 45.1586 3.9375 45.7778 3.9375C46.3971 3.9375 46.9192 4.15607 47.3564 4.5932C47.7935 5.03034 47.9999 5.55248 47.9999 6.17175ZM45.7535 4.25321C45.2193 4.25321 44.77 4.44749 44.3936 4.82391C44.0171 5.20034 43.835 5.64962 43.835 6.1839C43.835 6.71817 44.0171 7.17959 44.3936 7.55602C44.77 7.93244 45.2193 8.12672 45.7535 8.12672C46.2878 8.12672 46.7371 7.93244 47.1135 7.55602C47.4899 7.17959 47.6721 6.71817 47.6721 6.1839C47.6721 5.64962 47.4899 5.20034 47.1135 4.82391C46.7492 4.43535 46.2878 4.25321 45.7535 4.25321ZM45.7171 4.94534C46.0207 4.94534 46.2393 4.96963 46.385 5.03034C46.64 5.13962 46.7614 5.34605 46.7614 5.64962C46.7614 5.86819 46.6764 6.02604 46.5185 6.13533C46.4335 6.19604 46.3121 6.23247 46.1664 6.25675C46.3607 6.29318 46.4942 6.36604 46.5914 6.49961C46.6764 6.63317 46.725 6.7546 46.725 6.87603V7.05817C46.725 7.11888 46.725 7.17959 46.725 7.24031C46.725 7.30102 46.7371 7.34959 46.7492 7.37388L46.7614 7.41031H46.3607C46.3607 7.39816 46.3607 7.39816 46.3485 7.38602C46.3485 7.37388 46.3485 7.37388 46.3485 7.36173L46.3364 7.28888V7.0946C46.3364 6.81531 46.2635 6.62103 46.1057 6.53603C46.0085 6.48746 45.8507 6.45103 45.62 6.45103H45.2921V7.42245H44.855V4.96963H45.7171V4.94534ZM46.3485 5.68604C46.3485 5.5039 46.2878 5.38248 46.1907 5.32176C46.0814 5.26105 45.9114 5.22462 45.6685 5.22462H45.3043V6.11104H45.6928C45.875 6.11104 46.0085 6.08675 46.1057 6.05032C46.2635 6.00175 46.3485 5.88033 46.3485 5.68604Z" fill="black"/>
</g>
<defs>
<clipPath id="clip0_2311_25272">
<rect width="48" height="8.03845" fill="white" transform="translate(0 0.378906)"/>
</clipPath>
</defs>
</svg>
