<svg width="51" height="35" viewBox="0 0 51 35" fill="none" xmlns="http://www.w3.org/2000/svg">
<g clip-path="url(#clip0_2311_25290)">
<path d="M42.5652 5.50586C41.0047 5.50586 39.6101 6.3148 39.6101 7.80904C39.6101 9.52284 42.0834 9.6412 42.0834 10.5023C42.0834 10.8648 41.668 11.1893 40.9583 11.1893C39.9514 11.1893 39.1987 10.7359 39.1987 10.7359L38.8767 12.244C38.8767 12.244 39.7437 12.627 40.8947 12.627C42.6008 12.627 43.9435 11.7785 43.9435 10.2585C43.9435 8.44748 41.4599 8.33264 41.4599 7.5336C41.4599 7.24958 41.8009 6.9385 42.5084 6.9385C43.3068 6.9385 43.958 7.26828 43.958 7.26828L44.2733 5.81188C44.2733 5.81188 43.5644 5.50586 42.565 5.50586H42.5652ZM28.2878 5.61586L28.25 5.83564C28.25 5.83564 28.9065 5.95576 29.4978 6.19556C30.2593 6.47034 30.3134 6.6305 30.4416 7.12726L31.8389 12.5135H33.7119L36.5975 5.61586H34.7288L32.8746 10.3056L32.118 6.3302C32.0487 5.87524 31.6972 5.61564 31.2671 5.61564H28.2881L28.2878 5.61586ZM37.349 5.61586L35.8831 12.5135H37.6651L39.1257 5.61586H37.349ZM47.2877 5.61586C46.858 5.61586 46.6303 5.84598 46.4634 6.24792L43.8526 12.5135H45.7213L46.0828 11.4692H48.3593L48.5791 12.5135H50.228L48.7896 5.61586H47.2877ZM47.5308 7.47948L48.0848 10.0678H46.6009L47.531 7.47948H47.5308Z" fill="#1434CB"/>
</g>
<g clip-path="url(#clip1_2311_25290)">
<path d="M41.8359 18.6777H36.6265V28.0369H41.8359V18.6777Z" fill="#FF5A00"/>
<path d="M36.9734 23.3554C36.9734 21.4539 37.8673 19.7662 39.239 18.6758C38.2295 17.8821 36.9561 17.4023 35.567 17.4023C32.2765 17.4023 29.614 20.0648 29.614 23.3554C29.614 26.6459 32.2765 29.3084 35.567 29.3084C36.9561 29.3084 38.2295 28.8287 39.239 28.0349C37.8654 26.9599 36.9734 25.2569 36.9734 23.3554Z" fill="#EB001B"/>
<path d="M48.864 23.3573C48.864 26.6478 46.2015 29.3103 42.911 29.3103C41.522 29.3103 40.2485 28.8306 39.239 28.0369C40.628 26.9445 41.5046 25.2588 41.5046 23.3573C41.5046 21.4558 40.6107 19.7682 39.239 18.6777C40.2466 17.884 41.52 17.4043 42.9091 17.4043C46.2015 17.4043 48.864 20.0841 48.864 23.3573Z" fill="#F79E1B"/>
</g>
<g clip-path="url(#clip2_2311_25290)">
<path d="M27.5352 16.0307C26.7471 20.5238 23.0813 23.9201 18.271 23.9201H15.2171C14.5942 23.9201 13.9667 24.4967 13.8672 25.1344L12.5299 33.6231C12.4523 34.1064 12.2259 34.267 11.7362 34.267H6.82401C6.32731 34.267 6.20979 34.101 6.28422 33.6113L6.8483 27.7409L0.952079 27.4362C0.456157 27.4362 0.276747 27.1659 0.347258 26.6707L4.37026 1.1617C4.44782 0.678317 4.74866 0.470703 5.23675 0.470703H15.4396C20.351 0.470703 23.4582 3.77685 23.8381 8.06387C26.7604 10.0382 28.1267 12.6651 27.536 16.03L27.5352 16.0307Z" fill="#001C64"/>
<path d="M8.34317 18.2375L6.84913 27.7431L5.90429 33.7067C5.88674 33.8216 5.89416 33.939 5.92604 34.0509C5.95791 34.1628 6.0135 34.2664 6.08902 34.3549C6.16454 34.4434 6.25822 34.5145 6.3637 34.5635C6.46918 34.6125 6.58397 34.6383 6.70028 34.639H11.8883C12.1251 34.6387 12.354 34.554 12.5339 34.4C12.7139 34.2461 12.833 34.033 12.8699 33.7991L14.2355 25.1342C14.2726 24.9004 14.3918 24.6875 14.5717 24.5338C14.7516 24.38 14.9804 24.2954 15.2171 24.2951H18.271C20.5981 24.2921 22.8475 23.4578 24.6138 21.9428C26.38 20.4277 27.547 18.3316 27.9043 16.0321C28.4331 12.6578 26.7354 9.5859 23.8296 8.06836C23.823 8.42787 23.7916 8.7865 23.7356 9.14168C23.377 11.4399 22.2096 13.5346 20.4436 15.0485C18.6776 16.5624 16.4291 17.396 14.1031 17.3992H9.32404C9.08752 17.3993 8.85878 17.4838 8.67898 17.6374C8.49918 17.7911 8.3801 18.0039 8.34317 18.2375Z" fill="#0070E0"/>
<path d="M6.8481 27.7418H0.806934C0.690382 27.7412 0.575321 27.7156 0.469593 27.6665C0.363866 27.6174 0.269956 27.5462 0.194263 27.4575C0.11857 27.3689 0.0628737 27.265 0.0309696 27.1529C-0.000934508 27.0408 -0.00829656 26.9231 0.00938491 26.8079L4.08018 0.998058C4.11677 0.76415 4.2357 0.551002 4.41554 0.39702C4.59538 0.243037 4.8243 0.158345 5.06105 0.158203H15.4339C20.3453 0.158203 23.9163 3.73229 23.8324 8.0624C22.5252 7.388 21.0735 7.04194 19.6026 7.0541H10.9549C10.7181 7.05416 10.4891 7.13869 10.309 7.29249C10.1289 7.44629 10.0096 7.65928 9.97248 7.89318L8.34291 18.2362L6.8481 27.7418Z" fill="#003087"/>
</g>
<defs>
<clipPath id="clip0_2311_25290">
<rect width="22" height="7.14296" fill="white" transform="translate(28.239 5.49414)"/>
</clipPath>
<clipPath id="clip1_2311_25290">
<rect width="19.25" height="11.906" fill="white" transform="translate(29.614 17.4004)"/>
</clipPath>
<clipPath id="clip2_2311_25290">
<rect width="28" height="34.4795" fill="white" transform="translate(0 0.160156)"/>
</clipPath>
</defs>
</svg>
