<svg width="32" height="41" viewBox="0 0 32 41" fill="none" xmlns="http://www.w3.org/2000/svg">
<g clip-path="url(#clip0_2311_25241)">
<path d="M7.62939e-05 9.25391L4.78024 17.7981V23.0099L0.00566828 31.5373L7.62939e-05 9.25391Z" fill="#5B57A2"/>
<path d="M18.3541 14.6894L22.8333 11.9441L32.0002 11.9355L18.3541 20.2952V14.6894Z" fill="#D90751"/>
<path d="M18.3286 9.20371L18.3539 20.516L13.5626 17.572V0.662109L18.3286 9.20371Z" fill="#FAB718"/>
<path d="M32 11.9352L22.8328 11.9438L18.3286 9.20371L13.5626 0.662109L32 11.9352Z" fill="#ED6F26"/>
<path d="M18.3538 31.5855V26.0971L13.5625 23.209L13.5651 40.1356L18.3538 31.5855Z" fill="#63B22F"/>
<path d="M22.822 28.8644L4.77991 17.7981L7.62939e-05 9.25391L31.9807 28.8532L22.822 28.8644Z" fill="#1487C9"/>
<path d="M13.5655 40.1352L18.3536 31.585L22.8216 28.8647L31.9803 28.8535L13.5655 40.1352Z" fill="#017F36"/>
<path d="M0.00578308 31.5376L13.6019 23.2088L9.03093 20.4043L4.78036 23.0102L0.00578308 31.5376Z" fill="#984995"/>
</g>
<defs>
<clipPath id="clip0_2311_25241">
<rect width="32" height="39.4729" fill="white" transform="translate(0 0.662109)"/>
</clipPath>
</defs>
</svg>
