<svg width="48" height="27" viewBox="0 0 48 27" fill="none" xmlns="http://www.w3.org/2000/svg">
<g clip-path="url(#clip0_2311_25250)">
<path d="M35.3403 26.1426C35.2186 26.1426 35.0361 26.1426 34.9145 26.1426C34.1846 26.1426 33.5763 25.4735 33.5763 24.7436C33.5763 24.0137 34.2454 23.4054 34.9753 23.4054C37.6517 23.5271 40.1456 22.5538 42.092 20.729C44.0385 18.9042 45.1333 16.4712 45.255 13.7948C45.4375 8.3204 41.1188 3.69758 35.6444 3.5151C30.2916 3.33262 25.7905 7.408 25.3647 12.7607C25.3647 12.8216 25.3039 13.9164 25.3039 14.0381C24.9997 20.729 19.4037 26.0209 12.7128 26.0209C5.7177 26.0209 0 20.3641 0 13.369C0 6.37395 5.7177 0.65625 12.7128 0.65625C13.4427 0.65625 14.1118 1.26452 14.1118 2.05526C14.1118 2.84601 13.5035 3.45427 12.7128 3.45427C7.23837 3.45427 2.7372 7.89462 2.7372 13.4298C2.7372 18.9651 7.17754 23.4054 12.7128 23.4054C18.0047 23.4054 22.3842 19.2692 22.6275 13.9773C22.6275 13.8556 22.6883 12.7607 22.6883 12.6999C23.1749 5.76568 28.8926 0.595423 35.766 0.83873C42.7611 1.08204 48.2355 6.98222 47.9922 13.9773C47.8705 17.3836 46.4715 20.4857 43.9776 22.7971C41.6054 24.9869 38.5641 26.1426 35.3403 26.1426Z" fill="url(#paint0_linear_2311_25250)"/>
<path d="M35.3402 11.6652C36.1129 11.6652 36.7392 11.0389 36.7392 10.2662C36.7392 9.49355 36.1129 8.86719 35.3402 8.86719C34.5676 8.86719 33.9412 9.49355 33.9412 10.2662C33.9412 11.0389 34.5676 11.6652 35.3402 11.6652Z" fill="#020202"/>
<path d="M35.3402 18.2961C36.1129 18.2961 36.7392 17.6697 36.7392 16.8971C36.7392 16.1244 36.1129 15.498 35.3402 15.498C34.5676 15.498 33.9412 16.1244 33.9412 16.8971C33.9412 17.6697 34.5676 18.2961 35.3402 18.2961Z" fill="#020202"/>
<path d="M32.0556 14.9504C32.8283 14.9504 33.4546 14.324 33.4546 13.5514C33.4546 12.7787 32.8283 12.1523 32.0556 12.1523C31.283 12.1523 30.6566 12.7787 30.6566 13.5514C30.6566 14.324 31.283 14.9504 32.0556 14.9504Z" fill="#020202"/>
<path d="M38.6857 14.9504C39.4584 14.9504 40.0847 14.324 40.0847 13.5514C40.0847 12.7787 39.4584 12.1523 38.6857 12.1523C37.9131 12.1523 37.2867 12.7787 37.2867 13.5514C37.2867 14.324 37.9131 14.9504 38.6857 14.9504Z" fill="#020202"/>
<path d="M15.5716 12.1523C16.4232 12.1523 17.0314 12.8214 17.0314 13.6122C17.0314 14.4638 16.3624 15.072 15.5716 15.072H9.36729C8.51572 15.072 7.90746 14.4029 7.90746 13.6122C7.90746 12.7606 8.57655 12.1523 9.36729 12.1523H15.5716Z" fill="#171717"/>
<path d="M10.9488 10.6317C10.9488 9.78014 11.6179 9.17188 12.4086 9.17188C13.2602 9.17188 13.8685 9.84097 13.8685 10.6317V16.7752C13.8685 17.6268 13.1994 18.235 12.4086 18.235C11.5571 18.235 10.9488 17.5659 10.9488 16.7752V10.6317Z" fill="#171717"/>
</g>
<defs>
<linearGradient id="paint0_linear_2311_25250" x1="0" y1="13.4143" x2="47.9957" y2="13.4143" gradientUnits="userSpaceOnUse">
<stop offset="0.0842105" stop-color="#FF4547"/>
<stop offset="1" stop-color="#FF6E3D"/>
</linearGradient>
<clipPath id="clip0_2311_25250">
<rect width="48" height="25.4863" fill="white" transform="translate(0 0.65625)"/>
</clipPath>
</defs>
</svg>
