<svg width="55" height="36" viewBox="0 0 55 36" fill="none" xmlns="http://www.w3.org/2000/svg">
<g clip-path="url(#clip0_2311_25312)">
<path fill-rule="evenodd" clip-rule="evenodd" d="M46.9999 11.1768C46.9999 8.33234 45.6222 6.08789 42.9888 6.08789C40.3444 6.08789 38.7444 8.33234 38.7444 11.1546C38.7444 14.499 40.6333 16.1879 43.3444 16.1879C44.6666 16.1879 45.6666 15.8879 46.4222 15.4657V13.2435C45.6666 13.6212 44.7999 13.8546 43.6999 13.8546C42.6222 13.8546 41.6666 13.4768 41.5444 12.1657H46.9777C46.9777 12.0212 46.9999 11.4435 46.9999 11.1768ZM41.5111 10.1212C41.5111 8.86568 42.2777 8.34345 42.9777 8.34345C43.6555 8.34345 44.3777 8.86568 44.3777 10.1212H41.5111Z" fill="#635BFF"/>
<path fill-rule="evenodd" clip-rule="evenodd" d="M34.4554 6.08789C33.3666 6.08789 32.6666 6.599 32.2777 6.95456L32.1332 6.26567H29.6888V19.2213L32.4666 18.6324L32.4777 15.4879C32.8777 15.7768 33.4666 16.1879 34.4443 16.1879C36.4332 16.1879 38.2443 14.5879 38.2443 11.0657C38.2332 7.84345 36.3999 6.08789 34.4554 6.08789ZM33.7888 13.7435C33.1332 13.7435 32.7443 13.5101 32.4777 13.2212L32.4666 9.09901C32.7554 8.77679 33.1554 8.55456 33.7888 8.55456C34.7999 8.55456 35.4999 9.6879 35.4999 11.1435C35.4999 12.6324 34.811 13.7435 33.7888 13.7435Z" fill="#635BFF"/>
<path fill-rule="evenodd" clip-rule="evenodd" d="M25.8666 5.43173L28.6555 4.83173V2.57617L25.8666 3.16506V5.43173Z" fill="#635BFF"/>
<path d="M28.6555 6.27539H25.8666V15.9976H28.6555V6.27539Z" fill="#635BFF"/>
<path fill-rule="evenodd" clip-rule="evenodd" d="M22.8778 7.09918L22.7 6.27696H20.3V15.9992H23.0778V9.4103C23.7333 8.55474 24.8444 8.7103 25.1889 8.83252V6.27696C24.8333 6.14363 23.5333 5.89918 22.8778 7.09918Z" fill="#635BFF"/>
<path fill-rule="evenodd" clip-rule="evenodd" d="M17.3222 3.86523L14.6111 4.44301L14.6 13.343C14.6 14.9875 15.8333 16.1986 17.4778 16.1986C18.3889 16.1986 19.0555 16.0319 19.4222 15.8319V13.5764C19.0666 13.7208 17.3111 14.2319 17.3111 12.5875V8.64302H19.4222V6.27635H17.3111L17.3222 3.86523Z" fill="#635BFF"/>
<path fill-rule="evenodd" clip-rule="evenodd" d="M9.81111 9.09901C9.81111 8.66567 10.1667 8.49901 10.7556 8.49901C11.6 8.49901 12.6667 8.75456 13.5111 9.21012V6.599C12.5889 6.23234 11.6778 6.08789 10.7556 6.08789C8.5 6.08789 7 7.26567 7 9.23234C7 12.299 11.2222 11.8101 11.2222 13.1324C11.2222 13.6435 10.7778 13.8101 10.1556 13.8101C9.23333 13.8101 8.05556 13.4324 7.12222 12.9212V15.5657C8.15556 16.0101 9.2 16.199 10.1556 16.199C12.4667 16.199 14.0556 15.0546 14.0556 13.0657C14.0444 9.75457 9.81111 10.3435 9.81111 9.09901Z" fill="#635BFF"/>
</g>
<g clip-path="url(#clip1_2311_25312)">
<path d="M13.8516 25.4434C12.3428 25.4434 10.9944 26.2255 10.9944 27.6703C10.9944 29.3273 13.3857 29.4417 13.3857 30.2743C13.3857 30.6248 12.9841 30.9386 12.2979 30.9386C11.3243 30.9386 10.5966 30.5002 10.5966 30.5002L10.2852 31.9583C10.2852 31.9583 11.1235 32.3287 12.2364 32.3287C13.886 32.3287 15.1842 31.5082 15.1842 30.0386C15.1842 28.2875 12.7829 28.1765 12.7829 27.4039C12.7829 27.1293 13.1126 26.8285 13.7967 26.8285C14.5686 26.8285 15.1983 27.1474 15.1983 27.1474L15.5031 25.7392C15.5031 25.7392 14.8177 25.4434 13.8514 25.4434H13.8516ZM0.0471457 25.5497L0.0105591 25.7622C0.0105591 25.7622 0.645295 25.8784 1.21707 26.1102C1.95327 26.3759 2.00559 26.5307 2.12961 27.0111L3.48055 32.2189H5.29158L8.08153 25.5497H6.27474L4.482 30.0841L3.75048 26.2404C3.68347 25.8005 3.34356 25.5495 2.9277 25.5495H0.0473584L0.0471457 25.5497ZM8.80815 25.5497L7.39085 32.2189H9.11382L10.526 25.5497H8.80815ZM18.4177 25.5497C18.0022 25.5497 17.7821 25.7722 17.6206 26.1608L15.0964 32.2189H16.9032L17.2526 31.2092H19.4538L19.6663 32.2189H21.2606L19.8699 25.5497H18.4177ZM18.6527 27.3516L19.1883 29.8542H17.7536L18.6529 27.3516H18.6527Z" fill="#1434CB"/>
</g>
<g clip-path="url(#clip2_2311_25312)">
<path d="M34.5885 24.3633H29.5516V33.4124H34.5885V24.3633Z" fill="#FF5A00"/>
<path d="M29.887 28.8867C29.887 27.0482 30.7513 25.4164 32.0776 24.3621C31.1015 23.5947 29.8702 23.1309 28.5272 23.1309C25.3457 23.1309 22.7714 25.7051 22.7714 28.8867C22.7714 32.0682 25.3457 34.6425 28.5272 34.6425C29.8702 34.6425 31.1015 34.1787 32.0776 33.4113C30.7494 32.3719 29.887 30.7252 29.887 28.8867Z" fill="#EB001B"/>
<path d="M41.3839 28.8867C41.3839 32.0682 38.8096 34.6425 35.6281 34.6425C34.285 34.6425 33.0538 34.1787 32.0777 33.4113C33.4207 32.3551 34.2683 30.7252 34.2683 28.8867C34.2683 27.0482 33.404 25.4164 32.0777 24.3621C33.0519 23.5947 34.2832 23.1309 35.6262 23.1309C38.8096 23.1309 41.3839 25.7219 41.3839 28.8867Z" fill="#F79E1B"/>
</g>
<rect x="42.8837" y="23.1289" width="11.5117" height="11.5117" rx="5.75583" fill="#F7ADC1"/>
<path d="M45.1248 32.0553H46.5329V25.7129H45.1248V32.0553ZM50.149 25.7129H48.786C48.7634 27.1436 47.9298 28.3828 46.7357 28.9911L48.8423 32.0553H50.5546L48.6395 29.2727C49.5858 28.3377 50.1265 27.076 50.149 25.7129Z" fill="black"/>
<path d="M51.9298 30.4551C51.4905 30.4551 51.13 30.8155 51.13 31.2549C51.13 31.6942 51.4905 32.0547 51.9298 32.0547C52.3691 32.0547 52.7296 31.6942 52.7296 31.2549C52.7296 30.8043 52.3691 30.4551 51.9298 30.4551Z" fill="black"/>
<defs>
<clipPath id="clip0_2311_25312">
<rect width="40" height="16.6444" fill="white" transform="translate(7 2.57617)"/>
</clipPath>
<clipPath id="clip1_2311_25312">
<rect width="21.2713" height="6.90636" fill="white" transform="translate(-0.00012207 25.4316)"/>
</clipPath>
<clipPath id="clip2_2311_25312">
<rect width="18.6124" height="11.5117" fill="white" transform="translate(22.7713 23.1289)"/>
</clipPath>
</defs>
</svg>
