<svg width="48" height="21" viewBox="0 0 48 21" fill="none" xmlns="http://www.w3.org/2000/svg">
<g clip-path="url(#clip0_2311_25304)">
<path fill-rule="evenodd" clip-rule="evenodd" d="M48 10.7317C48 7.31834 46.3467 4.625 43.1867 4.625C40.0133 4.625 38.0933 7.31834 38.0933 10.705C38.0933 14.7184 40.36 16.745 43.6133 16.745C45.2 16.745 46.4 16.385 47.3067 15.8784V13.2117C46.4 13.665 45.36 13.945 44.04 13.945C42.7467 13.945 41.6 13.4917 41.4533 11.9184H47.9733C47.9733 11.745 48 11.0517 48 10.7317ZM41.4133 9.46501C41.4133 7.95834 42.3333 7.33167 43.1733 7.33167C43.9867 7.33167 44.8533 7.95834 44.8533 9.46501H41.4133Z" fill="#635BFF"/>
<path fill-rule="evenodd" clip-rule="evenodd" d="M32.9467 4.625C31.64 4.625 30.8 5.23834 30.3334 5.665L30.16 4.83833H27.2267V20.385L30.56 19.6784L30.5733 15.905C31.0533 16.2517 31.76 16.745 32.9334 16.745C35.32 16.745 37.4934 14.825 37.4934 10.5983C37.48 6.73167 35.28 4.625 32.9467 4.625ZM32.1467 13.8117C31.36 13.8117 30.8933 13.5317 30.5733 13.185L30.56 8.23834C30.9067 7.85167 31.3867 7.58501 32.1467 7.58501C33.36 7.58501 34.2 8.94501 34.2 10.6917C34.2 12.4784 33.3734 13.8117 32.1467 13.8117Z" fill="#635BFF"/>
<path fill-rule="evenodd" clip-rule="evenodd" d="M22.64 3.83878L25.9867 3.11878V0.412109L22.64 1.11878V3.83878Z" fill="#635BFF"/>
<path d="M25.9867 4.85156H22.64V16.5183H25.9867V4.85156Z" fill="#635BFF"/>
<path fill-rule="evenodd" clip-rule="evenodd" d="M19.0534 5.83933L18.84 4.85267H15.96V16.5194H19.2934V8.61267C20.08 7.586 21.4134 7.77267 21.8267 7.91934V4.85267C21.4 4.69266 19.84 4.39933 19.0534 5.83933Z" fill="#635BFF"/>
<path fill-rule="evenodd" clip-rule="evenodd" d="M12.3867 1.95898L9.13333 2.65232L9.12 13.3323C9.12 15.3057 10.6 16.759 12.5733 16.759C13.6667 16.759 14.4667 16.559 14.9067 16.319V13.6123C14.48 13.7857 12.3733 14.399 12.3733 12.4257V7.69233H14.9067V4.85233H12.3733L12.3867 1.95898Z" fill="#635BFF"/>
<path fill-rule="evenodd" clip-rule="evenodd" d="M3.37333 8.23834C3.37333 7.71834 3.8 7.51834 4.50667 7.51834C5.52 7.51834 6.8 7.82501 7.81333 8.37168V5.23833C6.70667 4.79833 5.61333 4.625 4.50667 4.625C1.8 4.625 0 6.03834 0 8.39834C0 12.0784 5.06667 11.4917 5.06667 13.0784C5.06667 13.6917 4.53333 13.8917 3.78667 13.8917C2.68 13.8917 1.26667 13.4384 0.146666 12.825V15.9984C1.38667 16.5317 2.64 16.7584 3.78667 16.7584C6.56 16.7584 8.46667 15.385 8.46667 12.9984C8.45333 9.02501 3.37333 9.73168 3.37333 8.23834Z" fill="#635BFF"/>
</g>
<defs>
<clipPath id="clip0_2311_25304">
<rect width="48" height="19.9733" fill="white" transform="translate(0 0.412109)"/>
</clipPath>
</defs>
</svg>
