<svg width="48" height="20" viewBox="0 0 48 20" fill="none" xmlns="http://www.w3.org/2000/svg">
<g clip-path="url(#clip0_2311_25334)">
<path d="M0.676086 7.87556V10.414L7.524 9.66076V6.91326L0.676086 7.87556ZM2.86137 10.5684V19.267H5.36846V10.3122L2.86137 10.5684ZM8.44884 6.78332V19.267H11.0906V6.4119L8.44884 6.78332ZM11.5828 6.34267V9.21442L15.3975 8.79473V5.80669L11.5828 6.34267ZM11.5828 11.3518V14.2759L14.0869 14.1394V11.1363L11.5828 11.3518ZM11.5828 16.3836V19.267H15.3975V16.2685L11.5828 16.3836ZM25.2628 4.41577V19.267H28.7259V3.92901L25.2628 4.41577ZM29.3727 3.83802V7.25413L34.4195 6.69922V3.12856L29.3727 3.83802ZM29.3727 9.82328V13.3027L32.6806 13.122V9.54001L29.3727 9.82328ZM29.3727 15.8459V19.267H34.4195V15.6935L29.3727 15.8459ZM16.4068 5.66459V19.267H19.4161V5.24151L16.4068 5.66459ZM19.9778 16.1303V19.2668H24.3459V15.9985L19.9778 16.1303ZM45.7344 2.96063C44.6399 1.92653 43.0351 1.50238 41.2798 1.75455V5.54344C41.9906 5.50395 42.5666 5.76775 42.8232 6.29886C43.2284 7.13623 42.8104 8.39261 41.8241 9.55664C40.3019 11.3529 36.2541 15.0296 36.2541 15.0296L42.0649 14.8385C45.6154 11.3698 46.8905 9.26432 47.1193 6.63648C47.2395 5.24624 46.7349 3.9067 45.7344 2.96063ZM47.324 19.267V15.3024L35.5379 15.6575M35.5379 15.6575L35.5391 19.2668H47.324M40.6022 1.83959C37.1783 2.56879 35.4969 5.08777 35.6909 9.19806L39.3416 8.8741C39.1753 6.55198 39.8856 6.00113 40.604 5.69825L40.6022 1.83959Z" fill="#141414"/>
</g>
<defs>
<clipPath id="clip0_2311_25334">
<rect width="48" height="18.9296" fill="white" transform="translate(0 0.933594)"/>
</clipPath>
</defs>
</svg>
