<svg width="32" height="11" viewBox="0 0 32 11" fill="none" xmlns="http://www.w3.org/2000/svg">
<g clip-path="url(#clip0_2311_25231)">
<path d="M20.8381 0.21875C18.5684 0.21875 16.5399 1.39539 16.5399 3.56883C16.5399 6.06163 20.1373 6.23379 20.1373 7.48627C20.1373 8.01363 19.5332 8.48563 18.5008 8.48563C17.0362 8.48563 15.9415 7.82611 15.9415 7.82611L15.473 10.0197C15.473 10.0197 16.7341 10.5768 18.4084 10.5768C20.89 10.5768 22.8429 9.34259 22.8429 7.13171C22.8429 4.49747 19.2304 4.33043 19.2304 3.16819C19.2304 2.75507 19.7264 2.30259 20.7556 2.30259C21.9168 2.30259 22.864 2.78227 22.864 2.78227L23.3226 0.66387C23.3226 0.66387 22.2916 0.21875 20.8378 0.21875H20.8381ZM0.0710713 0.37875L0.0160313 0.69843C0.0160313 0.69843 0.970911 0.87315 1.83107 1.22195C2.93859 1.62163 3.01731 1.85459 3.20387 2.57715L5.23619 10.4117H7.96067L12.1578 0.37875H9.43971L6.74275 7.20019L5.64227 1.41779C5.54147 0.75603 5.03011 0.37843 4.40451 0.37843H0.0713913L0.0710713 0.37875ZM13.2509 0.37875L11.1188 10.4117H13.7108L15.8352 0.37875H13.2509ZM27.7072 0.37875C27.0823 0.37875 26.7511 0.71347 26.5082 1.29811L22.7108 10.4117H25.4288L25.9546 8.89267H29.266L29.5856 10.4117H31.984L29.8919 0.37875H27.7072ZM28.0608 3.08947L28.8666 6.85427H26.7082L28.0612 3.08947H28.0608Z" fill="#1434CB"/>
</g>
<defs>
<clipPath id="clip0_2311_25231">
<rect width="32" height="10.3898" fill="white" transform="translate(0 0.203125)"/>
</clipPath>
</defs>
</svg>
